<svg xmlns="http://www.w3.org/2000/svg" width="400" height="200" viewBox="0 0 400 200">
  <defs>
    <linearGradient id="bg" x1="0%" y1="0%" x2="100%" y2="100%">
      <stop offset="0%" style="stop-color:#11998e"/>
      <stop offset="100%" style="stop-color:#38ef7d"/>
    </linearGradient>
  </defs>
  <rect width="400" height="200" fill="url(#bg)"/>
  <rect x="30" y="30" width="100" height="140" rx="8" fill="white" opacity="0.15"/>
  <rect x="140" y="30" width="230" height="140" rx="8" fill="white" opacity="0.1"/>
  <rect x="50" y="50" width="60" height="8" rx="4" fill="white" opacity="0.5"/>
  <circle cx="65" cy="90" r="6" fill="white" opacity="0.3"/>
  <rect x="80" y="85" width="35" height="10" rx="3" fill="white" opacity="0.3"/>
  <circle cx="65" cy="115" r="6" fill="white" opacity="0.3"/>
  <rect x="80" y="110" width="35" height="10" rx="3" fill="white" opacity="0.3"/>
  <circle cx="65" cy="140" r="6" fill="white" opacity="0.3"/>
  <rect x="80" y="135" width="35" height="10" rx="3" fill="white" opacity="0.3"/>
  <rect x="160" y="50" width="190" height="30" rx="4" fill="white" opacity="0.2"/>
  <rect x="160" y="90" width="190" height="30" rx="4" fill="white" opacity="0.2"/>
  <rect x="160" y="130" width="190" height="30" rx="4" fill="white" opacity="0.2"/>
  <text x="200" y="180" font-family="Arial" font-size="10" fill="white" opacity="0.6" text-anchor="middle">Task Manager</text>
</svg>
